<svg width="152" height="24" viewBox="0 0 152 24" fill="none" xmlns="http://www.w3.org/2000/svg">
<path d="M13.73 3.50989L15.49 7.02989C15.73 7.51989 16.37 7.98989 16.91 8.07989L20.1 8.60989C22.14 8.94989 22.62 10.4299 21.15 11.8899L18.67 14.3699C18.25 14.7899 18.02 15.5999 18.15 16.1799L18.86 19.2499C19.42 21.6799 18.13 22.6199 15.98 21.3499L12.99 19.5799C12.45 19.2599 11.56 19.2599 11.01 19.5799L8.02 21.3499C5.88 22.6199 4.58 21.6699 5.14 19.2499L5.85 16.1799C5.98 15.5999 5.75 14.7899 5.33 14.3699L2.85 11.8899C1.39 10.4299 1.86 8.94989 3.9 8.60989L7.09 8.07989C7.62 7.98989 8.26 7.51989 8.5 7.02989L10.26 3.50989C11.22 1.59989 12.78 1.59989 13.73 3.50989Z" fill="#EA9E3A"/>
<path d="M45.73 3.50989L47.49 7.02989C47.73 7.51989 48.37 7.98989 48.91 8.07989L52.1 8.60989C54.14 8.94989 54.62 10.4299 53.15 11.8899L50.67 14.3699C50.25 14.7899 50.02 15.5999 50.15 16.1799L50.86 19.2499C51.42 21.6799 50.13 22.6199 47.98 21.3499L44.99 19.5799C44.45 19.2599 43.56 19.2599 43.01 19.5799L40.02 21.3499C37.88 22.6199 36.58 21.6699 37.14 19.2499L37.85 16.1799C37.98 15.5999 37.75 14.7899 37.33 14.3699L34.85 11.8899C33.39 10.4299 33.86 8.94989 35.9 8.60989L39.09 8.07989C39.62 7.98989 40.26 7.51989 40.5 7.02989L42.26 3.50989C43.22 1.59989 44.78 1.59989 45.73 3.50989Z" fill="#EA9E3A"/>
<path d="M77.73 3.50989L79.49 7.02989C79.73 7.51989 80.37 7.98989 80.91 8.07989L84.1 8.60989C86.14 8.94989 86.62 10.4299 85.15 11.8899L82.67 14.3699C82.25 14.7899 82.02 15.5999 82.15 16.1799L82.86 19.2499C83.42 21.6799 82.13 22.6199 79.98 21.3499L76.99 19.5799C76.45 19.2599 75.56 19.2599 75.01 19.5799L72.02 21.3499C69.88 22.6199 68.58 21.6699 69.14 19.2499L69.85 16.1799C69.98 15.5999 69.75 14.7899 69.33 14.3699L66.85 11.8899C65.39 10.4299 65.86 8.94989 67.9 8.60989L71.09 8.07989C71.62 7.98989 72.26 7.51989 72.5 7.02989L74.26 3.50989C75.22 1.59989 76.78 1.59989 77.73 3.50989Z" fill="#EA9E3A"/>
<path d="M109.73 3.50989L111.49 7.02989C111.73 7.51989 112.37 7.98989 112.91 8.07989L116.1 8.60989C118.14 8.94989 118.62 10.4299 117.15 11.8899L114.67 14.3699C114.25 14.7899 114.02 15.5999 114.15 16.1799L114.86 19.2499C115.42 21.6799 114.13 22.6199 111.98 21.3499L108.99 19.5799C108.45 19.2599 107.56 19.2599 107.01 19.5799L104.02 21.3499C101.88 22.6199 100.58 21.6699 101.14 19.2499L101.85 16.1799C101.98 15.5999 101.75 14.7899 101.33 14.3699L98.85 11.8899C97.39 10.4299 97.86 8.94989 99.9 8.60989L103.09 8.07989C103.62 7.98989 104.26 7.51989 104.5 7.02989L106.26 3.50989C107.22 1.59989 108.78 1.59989 109.73 3.50989Z" fill="#EA9E3A"/>
<path d="M141.73 3.50989L143.49 7.02989C143.73 7.51989 144.37 7.98989 144.91 8.07989L148.1 8.60989C150.14 8.94989 150.62 10.4299 149.15 11.8899L146.67 14.3699C146.25 14.7899 146.02 15.5999 146.15 16.1799L146.86 19.2499C147.42 21.6799 146.13 22.6199 143.98 21.3499L140.99 19.5799C140.45 19.2599 139.56 19.2599 139.01 19.5799L136.02 21.3499C133.88 22.6199 132.58 21.6699 133.14 19.2499L133.85 16.1799C133.98 15.5999 133.75 14.7899 133.33 14.3699L130.85 11.8899C129.39 10.4299 129.86 8.94989 131.9 8.60989L135.09 8.07989C135.62 7.98989 136.26 7.51989 136.5 7.02989L138.26 3.50989C139.22 1.59989 140.78 1.59989 141.73 3.50989Z" stroke="#EA9E3A" stroke-linecap="round" stroke-linejoin="round"/>
</svg>
